<svg id="visual" viewBox="0 0 960 540" width="960" height="540" xmlns="http://www.w3.org/2000/svg" xmlns:xlink="http://www.w3.org/1999/xlink" version="1.1"><path d="M0 66L10.7 72.3C21.3 78.7 42.7 91.3 64 99.3C85.3 107.3 106.7 110.7 128 110.7C149.3 110.7 170.7 107.3 192 101.2C213.3 95 234.7 86 256 86.8C277.3 87.7 298.7 98.3 320 105.5C341.3 112.7 362.7 116.3 384 113.7C405.3 111 426.7 102 448 98.3C469.3 94.7 490.7 96.3 512 90.8C533.3 85.3 554.7 72.7 576 66.3C597.3 60 618.7 60 640 65.5C661.3 71 682.7 82 704 85.7C725.3 89.3 746.7 85.7 768 84.7C789.3 83.7 810.7 85.3 832 80C853.3 74.7 874.7 62.3 896 63.3C917.3 64.3 938.7 78.7 949.3 85.8L960 93L960 0L949.3 0C938.7 0 917.3 0 896 0C874.7 0 853.3 0 832 0C810.7 0 789.3 0 768 0C746.7 0 725.3 0 704 0C682.7 0 661.3 0 640 0C618.7 0 597.3 0 576 0C554.7 0 533.3 0 512 0C490.7 0 469.3 0 448 0C426.7 0 405.3 0 384 0C362.7 0 341.3 0 320 0C298.7 0 277.3 0 256 0C234.7 0 213.3 0 192 0C170.7 0 149.3 0 128 0C106.7 0 85.3 0 64 0C42.7 0 21.3 0 10.7 0L0 0Z" fill="#03253d"></path><path d="M0 120L10.7 129C21.3 138 42.7 156 64 164C85.3 172 106.7 170 128 165.5C149.3 161 170.7 154 192 146.8C213.3 139.7 234.7 132.3 256 137.7C277.3 143 298.7 161 320 165.5C341.3 170 362.7 161 384 159.2C405.3 157.3 426.7 162.7 448 164.5C469.3 166.3 490.7 164.7 512 157.5C533.3 150.3 554.7 137.7 576 131.3C597.3 125 618.7 125 640 132.2C661.3 139.3 682.7 153.7 704 151.8C725.3 150 746.7 132 768 125.8C789.3 119.7 810.7 125.3 832 127.2C853.3 129 874.7 127 896 133.2C917.3 139.3 938.7 153.7 949.3 160.8L960 168L960 91L949.3 83.8C938.7 76.7 917.3 62.3 896 61.3C874.7 60.3 853.3 72.7 832 78C810.7 83.3 789.3 81.7 768 82.7C746.7 83.7 725.3 87.3 704 83.7C682.7 80 661.3 69 640 63.5C618.7 58 597.3 58 576 64.3C554.7 70.7 533.3 83.3 512 88.8C490.7 94.3 469.3 92.7 448 96.3C426.7 100 405.3 109 384 111.7C362.7 114.3 341.3 110.7 320 103.5C298.7 96.3 277.3 85.7 256 84.8C234.7 84 213.3 93 192 99.2C170.7 105.3 149.3 108.7 128 108.7C106.7 108.7 85.3 105.3 64 97.3C42.7 89.3 21.3 76.7 10.7 70.3L0 64Z" fill="#022a46"></path><path d="M0 239L10.7 246.2C21.3 253.3 42.7 267.7 64 275.7C85.3 283.7 106.7 285.3 128 278.2C149.3 271 170.7 255 192 247.8C213.3 240.7 234.7 242.3 256 251.3C277.3 260.3 298.7 276.7 320 281.2C341.3 285.7 362.7 278.3 384 272.8C405.3 267.3 426.7 263.7 448 261C469.3 258.3 490.7 256.7 512 250.3C533.3 244 554.7 233 576 240.2C597.3 247.3 618.7 272.7 640 289C661.3 305.3 682.7 312.7 704 312.7C725.3 312.7 746.7 305.3 768 292.7C789.3 280 810.7 262 832 258.3C853.3 254.7 874.7 265.3 896 266.2C917.3 267 938.7 258 949.3 253.5L960 249L960 166L949.3 158.8C938.7 151.7 917.3 137.3 896 131.2C874.7 125 853.3 127 832 125.2C810.7 123.3 789.3 117.7 768 123.8C746.7 130 725.3 148 704 149.8C682.7 151.7 661.3 137.3 640 130.2C618.7 123 597.3 123 576 129.3C554.7 135.7 533.3 148.3 512 155.5C490.7 162.7 469.3 164.3 448 162.5C426.7 160.7 405.3 155.3 384 157.2C362.7 159 341.3 168 320 163.5C298.7 159 277.3 141 256 135.7C234.7 130.3 213.3 137.7 192 144.8C170.7 152 149.3 159 128 163.5C106.7 168 85.3 170 64 162C42.7 154 21.3 136 10.7 127L0 118Z" fill="#002f4f"></path><path d="M0 330L10.7 329.2C21.3 328.3 42.7 326.7 64 334C85.3 341.3 106.7 357.7 128 358.5C149.3 359.3 170.7 344.7 192 331.2C213.3 317.7 234.7 305.3 256 310.8C277.3 316.3 298.7 339.7 320 347.7C341.3 355.7 362.7 348.3 384 339.3C405.3 330.3 426.7 319.7 448 315.2C469.3 310.7 490.7 312.3 512 311.3C533.3 310.3 554.7 306.7 576 316.7C597.3 326.7 618.7 350.3 640 363C661.3 375.7 682.7 377.3 704 371.8C725.3 366.3 746.7 353.7 768 346.5C789.3 339.3 810.7 337.7 832 340.3C853.3 343 874.7 350 896 343.7C917.3 337.3 938.7 317.7 949.3 307.8L960 298L960 247L949.3 251.5C938.7 256 917.3 265 896 264.2C874.7 263.3 853.3 252.7 832 256.3C810.7 260 789.3 278 768 290.7C746.7 303.3 725.3 310.7 704 310.7C682.7 310.7 661.3 303.3 640 287C618.7 270.7 597.3 245.3 576 238.2C554.7 231 533.3 242 512 248.3C490.7 254.7 469.3 256.3 448 259C426.7 261.7 405.3 265.3 384 270.8C362.7 276.3 341.3 283.7 320 279.2C298.7 274.7 277.3 258.3 256 249.3C234.7 240.3 213.3 238.7 192 245.8C170.7 253 149.3 269 128 276.2C106.7 283.3 85.3 281.7 64 273.7C42.7 265.7 21.3 251.3 10.7 244.2L0 237Z" fill="#03385d"></path><path d="M0 384L10.7 385.8C21.3 387.7 42.7 391.3 64 397.7C85.3 404 106.7 413 128 409.5C149.3 406 170.7 390 192 379.2C213.3 368.3 234.7 362.7 256 366.2C277.3 369.7 298.7 382.3 320 391.3C341.3 400.3 362.7 405.7 384 402.2C405.3 398.7 426.7 386.3 448 381C469.3 375.7 490.7 377.3 512 377.3C533.3 377.3 554.7 375.7 576 386.5C597.3 397.3 618.7 420.7 640 427.8C661.3 435 682.7 426 704 419.7C725.3 413.3 746.7 409.7 768 407C789.3 404.3 810.7 402.7 832 401.8C853.3 401 874.7 401 896 393.7C917.3 386.3 938.7 371.7 949.3 364.3L960 357L960 296L949.3 305.8C938.7 315.7 917.3 335.3 896 341.7C874.7 348 853.3 341 832 338.3C810.7 335.7 789.3 337.3 768 344.5C746.7 351.7 725.3 364.3 704 369.8C682.7 375.3 661.3 373.7 640 361C618.7 348.3 597.3 324.7 576 314.7C554.7 304.7 533.3 308.3 512 309.3C490.7 310.3 469.3 308.7 448 313.2C426.7 317.7 405.3 328.3 384 337.3C362.7 346.3 341.3 353.7 320 345.7C298.7 337.7 277.3 314.3 256 308.8C234.7 303.3 213.3 315.7 192 329.2C170.7 342.7 149.3 357.3 128 356.5C106.7 355.7 85.3 339.3 64 332C42.7 324.7 21.3 326.3 10.7 327.2L0 328Z" fill="#0b4773"></path><path d="M0 541L10.7 541C21.3 541 42.7 541 64 541C85.3 541 106.7 541 128 541C149.3 541 170.7 541 192 541C213.3 541 234.7 541 256 541C277.3 541 298.7 541 320 541C341.3 541 362.7 541 384 541C405.3 541 426.7 541 448 541C469.3 541 490.7 541 512 541C533.3 541 554.7 541 576 541C597.3 541 618.7 541 640 541C661.3 541 682.7 541 704 541C725.3 541 746.7 541 768 541C789.3 541 810.7 541 832 541C853.3 541 874.7 541 896 541C917.3 541 938.7 541 949.3 541L960 541L960 355L949.3 362.3C938.7 369.7 917.3 384.3 896 391.7C874.7 399 853.3 399 832 399.8C810.7 400.7 789.3 402.3 768 405C746.7 407.7 725.3 411.3 704 417.7C682.7 424 661.3 433 640 425.8C618.7 418.7 597.3 395.3 576 384.5C554.7 373.7 533.3 375.3 512 375.3C490.7 375.3 469.3 373.7 448 379C426.7 384.3 405.3 396.7 384 400.2C362.7 403.7 341.3 398.3 320 389.3C298.7 380.3 277.3 367.7 256 364.2C234.7 360.7 213.3 366.3 192 377.2C170.7 388 149.3 404 128 407.5C106.7 411 85.3 402 64 395.7C42.7 389.3 21.3 385.7 10.7 383.8L0 382Z" fill="#145789"></path></svg>